<svg id="Layer_1" data-name="Layer 1" xmlns="http://www.w3.org/2000/svg" viewBox="0 0 493.11 398.72"><title>logo1</title><path d="M242.93,327.58q5.82-7.82,17.36-7.82a20.16,20.16,0,0,1,6.86,1.09,15.41,15.41,0,0,1,5.13,3,13,13,0,0,1,3.21,4.34,12.46,12.46,0,0,1,1.14,5.25v38.46a13.19,13.19,0,0,0,1.82,7.47H269a11.09,11.09,0,0,1-1.61-3.48,15.7,15.7,0,0,1-.47-3.9,30.26,30.26,0,0,1-1.61,3.38,9.77,9.77,0,0,1-2.39,2.87,12,12,0,0,1-3.52,1.95,14.68,14.68,0,0,1-4.9.73,17.94,17.94,0,0,1-7.25-1.29,12.27,12.27,0,0,1-4.69-3.57,14,14,0,0,1-2.56-5.29,26.22,26.22,0,0,1-.79-6.6,13.88,13.88,0,0,1,4.56-10.41q4.56-4.35,13.85-6.34a14.65,14.65,0,0,0,6.12-2.65,9.52,9.52,0,0,0,3.26-5.51v-4.43a10,10,0,0,0-.87-3.95,14.11,14.11,0,0,0-2.35-3.74,12.54,12.54,0,0,0-3.47-2.79,8.77,8.77,0,0,0-4.25-1.08q-5.73,0-10.17,5.73Zm24.05,16a6.69,6.69,0,0,1-2,4.17,12.56,12.56,0,0,1-4.47,2.52q-11.72,3.81-11.72,12a37.18,37.18,0,0,0,.43,5.65A17.87,17.87,0,0,0,250.7,373a10.38,10.38,0,0,0,2.86,3.7,6.78,6.78,0,0,0,4.38,1.43q3,0,5.21-3.17a26.52,26.52,0,0,0,3.48-7.77l.34-3Z" transform="translate(-174.39 -98.28)" style="fill:#765a4e"/><path d="M439.24,349.64a58.23,58.23,0,0,1,1.14-11.9,25.23,25.23,0,0,1,3.9-9.46,18.86,18.86,0,0,1,7.47-6.25,27.11,27.11,0,0,1,11.81-2.26,15.06,15.06,0,0,1,13.8,7.72q4.6,7.73,4.6,22.32a56.41,56.41,0,0,1-1.6,14.54,24.57,24.57,0,0,1-4.69,9.6,17.71,17.71,0,0,1-7.56,5.29,29.36,29.36,0,0,1-10.19,1.65q-9.81,0-14.24-7.64T439.24,349.64Zm19.36-26.57a7.17,7.17,0,0,0-4.26,1.3,9.49,9.49,0,0,0-3,4.26,31.16,31.16,0,0,0-1.83,7.77,96.3,96.3,0,0,0-.6,11.85q0,14.5,3.26,22.1t9.94,7.6a8.08,8.08,0,0,0,8.16-5.6,31.85,31.85,0,0,0,2-8.25,106.42,106.42,0,0,0,.66-13,54.89,54.89,0,0,0-1.08-11.25,37.73,37.73,0,0,0-3-8.9,17.15,17.15,0,0,0-4.47-5.81A9,9,0,0,0,458.6,323.07Z" transform="translate(-174.39 -98.28)" style="fill:#765a4e"/><path d="M557.64,321v7a10.3,10.3,0,0,1,1.87-3.73,11.17,11.17,0,0,1,2.86-2.56,12.94,12.94,0,0,1,3.39-1.48,13.34,13.34,0,0,1,3.43-.48q7.12,0,9.55,6.6a15.51,15.51,0,0,1,13.2-6.86,12.91,12.91,0,0,1,5.55,1.13,12,12,0,0,1,4.12,3.13,14.19,14.19,0,0,1,2.6,4.69,18,18,0,0,1,.91,5.81v45.16h-9.46V335.65a25.2,25.2,0,0,0-.43-4.69,16.33,16.33,0,0,0-1.3-4,9.68,9.68,0,0,0-2-2.86,3.87,3.87,0,0,0-2.73-1.09,6.39,6.39,0,0,0-5.6,3q-2,3-2,8.24v45.16H572V335.65c0-1.22-.08-2.54-.22-4a16.23,16.23,0,0,0-.91-4.07,8.22,8.22,0,0,0-2-3.17,4.79,4.79,0,0,0-3.47-1.26,4.73,4.73,0,0,0-3,1.13,10.12,10.12,0,0,0-2.43,3,17.7,17.7,0,0,0-1.66,4.21,18.57,18.57,0,0,0-.6,4.69v43.24H548V323.93Z" transform="translate(-174.39 -98.28)" style="fill:#765a4e"/><path d="M372.19,328.89l-10.6,32.38L350,321H339.71l17.36,53.48-3.13,8.86a10.86,10.86,0,0,1-2,3.56,14.15,14.15,0,0,1-3.13,2.69A15.42,15.42,0,0,1,345,391.3a14.08,14.08,0,0,1-4,.6v3.22a18.36,18.36,0,0,0,10.93-3.34,17.69,17.69,0,0,0,6.6-9.34l16.68-52.65c.08-.32,2.16-7.57,8.56-7.57v-3.08C376.68,319.15,373.08,325.58,372.19,328.89Z" transform="translate(-174.39 -98.28)" style="fill:#765a4e"/><path d="M186.77,465.73v20a31.41,31.41,0,0,1-.31,4.82,6.68,6.68,0,0,1-1.43,3.17,7.28,7.28,0,0,1-3,2.43,10.65,10.65,0,0,1-4.39.83,5.71,5.71,0,0,1-3.26-.87l.91-.65a6.61,6.61,0,0,0,2.25.69,5.07,5.07,0,0,0,3.52-1.34,5.15,5.15,0,0,0,1.74-3.13,35.45,35.45,0,0,0,.39-6v-20Z" transform="translate(-174.39 -98.28)" style="fill:#4f373a"/><path d="M227.84,485.54H216.33L211.94,497h-1.65l12.94-31.27h.91L237.44,497h-4.91l-2.35-5.73Zm-.4-1L222,471.38l-5.35,13.12Z" transform="translate(-174.39 -98.28)" style="fill:#4f373a"/><path d="M279.45,465.73l-4.08,9.69L266.29,497h-1.43l-10.51-24.19-.35-.65c-.17-.39-.34-.9-.6-1.52a7.81,7.81,0,0,0-.62-1.35l-1.51-3.56h4.56l2.69,6L267.3,492l7-16.9c.43-1,.78-1.91,1-2.69l2.65-6.69Z" transform="translate(-174.39 -98.28)" style="fill:#4f373a"/><path d="M311.19,485.54H299.68L295.3,497h-1.66l12.94-31.27h.91L320.78,497h-4.91l-2.34-5.73Zm-.39-1-5.47-13.12L300,484.49Z" transform="translate(-174.39 -98.28)" style="fill:#4f373a"/><path d="M402.4,465.73l-4.08,9.69L389.23,497H387.8l-10.52-24.19-.34-.65c-.17-.39-.34-.9-.6-1.52a7.75,7.75,0,0,0-.61-1.35l-1.51-3.56h4.55l2.7,6L390.24,492l7-16.9c.43-1,.78-1.91,1-2.69l2.65-6.69Z" transform="translate(-174.39 -98.28)" style="fill:#4f373a"/><path d="M432.51,465.73V497H428V465.73Z" transform="translate(-174.39 -98.28)" style="fill:#4f373a"/><path d="M481.19,496v1H459.43V465.73h4.51V496Z" transform="translate(-174.39 -98.28)" style="fill:#4f373a"/><path d="M525.77,496v1H504V465.73h4.52V496Z" transform="translate(-174.39 -98.28)" style="fill:#4f373a"/><path d="M566,485.54H554.49L550.11,497h-1.65l12.94-31.27h.92L575.6,497h-4.91l-2.34-5.73Zm-.4-1-5.47-13.12-5.34,13.12Z" transform="translate(-174.39 -98.28)" style="fill:#4f373a"/><path d="M619.83,483.67h4.35v5a6.2,6.2,0,0,1-2.21,4.82,12.33,12.33,0,0,1-3.09,2.13,20.11,20.11,0,0,1-7,1.43,14.58,14.58,0,0,1-15-15.07,17.09,17.09,0,0,1,4.08-11.33A13.71,13.71,0,0,1,612,465.73a12.62,12.62,0,0,1,9.9,4.34v.13l-1,1a9.17,9.17,0,0,0-1.48-1.7,9.66,9.66,0,0,0-6.94-2.74A10.08,10.08,0,0,0,605,470c-2.09,2.09-3.17,5.82-3.17,11.21s1,9.12,3.08,11.37a9.76,9.76,0,0,0,7.56,3.34,8.92,8.92,0,0,0,4.16-1,5,5,0,0,0,2.52-2.3,7.33,7.33,0,0,0,.65-3.43Z" transform="translate(-174.39 -98.28)" style="fill:#4f373a"/><path d="M657.81,495.92h9.59V497H649.26V465.73H667.5v1H653.72V480h9v1.09h-9v14.81Z" transform="translate(-174.39 -98.28)" style="fill:#4f373a"/><path d="M411.13,98.93A105,105,0,0,1,434,98.87c11,1.19,22,4.53,31.2,10.86A56,56,0,0,1,484.44,133a62.28,62.28,0,0,1,5.42,20.14c11,.9,22.19,3.63,31.64,9.61a49.23,49.23,0,0,1,17.45,18.88,59.83,59.83,0,0,1,5.55,15.55,47.53,47.53,0,0,1,1.19,14.47c-.36,3-1.13,6.06-3.15,8.36a6.83,6.83,0,0,1-6.31,2.26,6.65,6.65,0,0,1-4.44-3.27,19.94,19.94,0,0,1-2.5-7.9,39.84,39.84,0,0,0-27.53-31A53.27,53.27,0,0,0,487,177.79c-5.58-.19-11.31-1.95-15.37-5.91-5-4.77-7.1-11.85-7.1-18.6a21.1,21.1,0,0,0-4.12-12.7,29.08,29.08,0,0,0-11.3-8.6,63.73,63.73,0,0,0-18.69-4.92,58,58,0,0,0-9.65-.49,74.56,74.56,0,0,0-19.82,3.65c-5.71,2-11.33,4.95-15.2,9.72a20.88,20.88,0,0,0-4.62,13,29.26,29.26,0,0,1-2.67,12.72,20.57,20.57,0,0,1-6.48,7.9,22.75,22.75,0,0,1-10.07,3.88c-2.34.38-4.73.29-7.09.52A44,44,0,0,0,331,186.84a40.33,40.33,0,0,0-14.67,24.47,20,20,0,0,1-2.23,7.27,7.22,7.22,0,0,1-3.9,3.46,6.81,6.81,0,0,1-6.79-1.78c-2.1-2.14-2.94-5.16-3.37-8a35.93,35.93,0,0,1,.21-9.89,59.56,59.56,0,0,1,9.66-26,49.58,49.58,0,0,1,18.36-15.94c8.51-4.39,18-6.48,27.52-7.27a62.58,62.58,0,0,1,8.79-26.49,54.78,54.78,0,0,1,19.33-19,69.45,69.45,0,0,1,27.25-8.64" transform="translate(-174.39 -98.28)" style="fill:#be5e4b"/></svg>