<svg xmlns="http://www.w3.org/2000/svg" viewBox="0 0 26.01 26.02"><defs><style>.cls-1{fill:#222221;fill-rule:evenodd;}</style></defs><title>whatsapp</title><g id="Layer_2" data-name="Layer 2"><g id="Capa_1" data-name="Capa 1"><path class="cls-1" d="M26,12.35A12.78,12.78,0,0,0,.48,12.12c0,.18,0,.37,0,.55A12.57,12.57,0,0,0,2.3,19.22L0,26l7.07-2.25A12.78,12.78,0,0,0,26,12.67Zm-12.77,11a10.72,10.72,0,0,1-5.9-1.76L3.21,22.88l1.34-4a10.51,10.51,0,0,1-2-6.25,8.88,8.88,0,0,1,.05-1,10.74,10.74,0,0,1,21.38.2,7.69,7.69,0,0,1,0,.83A10.71,10.71,0,0,1,13.24,23.33Z"/><path class="cls-1" d="M19.1,15.23c-.32-.15-1.86-.91-2.14-1s-.5-.15-.71.16-.81,1-1,1.21-.37.24-.68.08a8.71,8.71,0,0,1-2.52-1.54A9.24,9.24,0,0,1,10.32,12c-.18-.31,0-.48.14-.63s.31-.37.47-.55l.11-.15a3.09,3.09,0,0,0,.2-.37.57.57,0,0,0,0-.54c-.08-.16-.71-1.69-1-2.31s-.52-.51-.71-.51-.39,0-.6,0a1.15,1.15,0,0,0-.83.39A3.45,3.45,0,0,0,7,9.87a4.18,4.18,0,0,0,.16,1.06,7.06,7.06,0,0,0,1.12,2.15c.16.2,2.17,3.45,5.35,4.69s3.18.83,3.76.78a3.15,3.15,0,0,0,2.11-1.48,2.57,2.57,0,0,0,.18-1.48C19.62,15.47,19.41,15.39,19.1,15.23Z"/></g></g></svg>